<?xml version="1.0" standalone="no"?>
<!DOCTYPE svg PUBLIC "-//W3C//DTD SVG 20010904//EN"
 "http://www.w3.org/TR/2001/REC-SVG-20010904/DTD/svg10.dtd">
<svg version="1.0" xmlns="http://www.w3.org/2000/svg"
 width="260.000000pt" height="260.000000pt" viewBox="0 0 260.000000 260.000000"
 preserveAspectRatio="xMidYMid meet">
<metadata>
Created by potrace 1.11, written by Peter Selinger 2001-2013
</metadata>
<g transform="translate(0.000000,260.000000) scale(0.100000,-0.100000)"
fill="#000000" stroke="none">
<path d="M1556 2057 c-18 -39 -82 -186 -142 -324 -60 -139 -113 -252 -117
-250 -5 1 -72 145 -150 320 -78 174 -145 317 -148 317 -6 0 -260 -143 -278
-156 -2 -2 96 -132 218 -290 121 -158 219 -289 218 -290 -3 -3 -568 68 -649
82 l-38 6 0 -161 c0 -89 1 -161 3 -161 1 0 155 20 342 45 187 24 341 42 343
40 3 -2 -96 -133 -218 -290 -122 -157 -221 -287 -219 -289 13 -11 263 -165
265 -163 1 1 68 146 148 322 81 176 151 324 155 328 5 5 71 -138 147 -317 77
-179 142 -326 145 -326 4 0 70 36 148 81 92 53 139 85 134 92 -4 7 -103 133
-221 280 -118 147 -212 270 -208 274 5 5 568 -57 664 -74 l32 -5 0 161 0 162
-32 -6 c-121 -20 -660 -86 -665 -81 -3 3 21 41 54 83 207 271 373 493 373 500
0 9 -3 11 -163 102 l-108 61 -33 -73z"/>
</g>
</svg>
